<svg id="Livello_1" data-name="Livello 1" xmlns="http://www.w3.org/2000/svg" viewBox="0 0 495 599"><defs><style>.cls-1,.cls-2,.cls-3,.cls-4,.cls-5,.cls-6,.cls-7{fill:none;stroke-width:2px;}.cls-1{stroke:#6daad5;}.cls-2{stroke:#94c0dd;}.cls-3{stroke:#d8e9f8;}.cls-4{stroke:#9dcbe9;}.cls-5{stroke:#76b5e2;}.cls-6{stroke:#387099;}.cls-7{stroke:#9aa4af;}.cls-13,.cls-8{fill:#175477;}.cls-9{fill:#fff;}.cls-10{fill:#3b97d3;}.cls-11{fill:#b0d3f0;}.cls-12{fill:#35495e;}.cls-13{font-size:68px;font-family:Futura-Bold, Futura;font-weight:700;}.cls-14{letter-spacing:0.01em;}</style></defs><path class="cls-1" d="M409.51,247.68v-1"/><path class="cls-2" d="M409.55,246.73c-.47-77.29-56.07-144.66-131.8-158.51C168.78,68.3,71.21,160,87,270.25c10.16,70.93,66,127.38,137.16,137.64C321.74,422,409.51,346.34,409.51,247.68"/><path class="cls-3" d="M409.55,246.73a.49.49,0,0,1-.45-.07c-21.39-30.47-47.57-58.39-78-80A187.23,187.23,0,0,0,292,145.33"/><path class="cls-4" d="M292,145.33a153.14,153.14,0,0,0-19.75-6.06q-39.23-8.36-74.68,9"/><path class="cls-3" d="M197.58,148.31a3.64,3.64,0,0,0-2.09.18c-43.72,20.37-80.14,56.9-107.79,95.7A27.61,27.61,0,0,0,86,247a.86.86,0,0,0,0,.85,48.94,48.94,0,0,0,3.16,5c28.33,39.45,65.67,75.45,110.41,95.62a1,1,0,0,0,.71,0q.34-.11,0-.18c-.52-.11-.66-.41-.41-.89"/><path class="cls-4" d="M199.83,347.41c27.86,14.41,61.41,13.93,90.35,2.86"/><path class="cls-3" d="M290.18,350.27c48.68-18.37,90.1-60.73,119.33-102.59"/><path class="cls-5" d="M292,145.33c0,1.33,2.87,1.94,3.76,2.38q32,15.67,48.83,46.23c31.56,57.25,6.68,130.71-54.36,155.73a.43.43,0,0,0-.25.38c0,.15.06.23.19.22"/><path class="cls-5" d="M199.83,347.41c-30.32-13.65-52.09-42-60-73.44-12.74-50.82,12.06-101.6,57.72-125.66"/><path class="cls-6" d="M191.63,227q-6.07,16-3,31c5.44,26.33,25.74,45.84,52.48,48.84,35.53,4,66.54-24.66,66-60.5-.57-41.43-42.37-68.52-80.29-54.83"/><path class="cls-4" d="M226.89,191.51c-16.32-8-33.73-1.64-38.24,15.78q-2.53,9.79,3,19.67"/><path class="cls-7" d="M226.89,191.51q10.52,7.35,11.82,18.74c3.1,27.27-31.3,39-47.08,16.71"/><path class="cls-8" d="M205.48,55.37q3.2-22.8,6.54-45.58C213,3,215.5,0,222.41,0H273.5c7.21,0,8.78,4.66,9.72,11.18q3.16,22.11,6.29,44a1,1,0,0,0,.74.8A194.94,194.94,0,0,1,352.6,81.84a1,1,0,0,0,1.22,0q18.49-13.91,37.32-27.94c4.63-3.46,8.78-3.78,12.89.32L440,90.14c4.45,4.46,5.26,8.34,1.49,13.41q-14.11,19-28.28,37.75a1,1,0,0,0-.05,1.12A195.75,195.75,0,0,1,439,204.81a.78.78,0,0,0,.7.64q22.8,3.23,45.51,6.53c6.81,1,9.77,3.54,9.78,10.42v50.85c0,7.6-4.56,9.06-11.43,10q-22,3.12-43.93,6.33a.7.7,0,0,0-.62.57,195.4,195.4,0,0,1-25.8,62.34,1,1,0,0,0,.05,1.28Q427.62,373,442,392.23c3.47,4.65,1.74,8.85-2.16,12.76q-17.31,17.34-34.65,34.65c-4.63,4.63-8.4,5.74-13.77,1.74q-18.93-14.1-37.63-28.2a1,1,0,0,0-1.2-.05A195.28,195.28,0,0,1,290.18,439a.77.77,0,0,0-.65.7q-3.27,22.76-6.51,45.43c-1,7.11-3.65,9.83-10.73,9.84H220.75c-6.43,0-8.1-5.18-8.95-11q-3.21-22.16-6.31-44.34a.79.79,0,0,0-.6-.66,195.31,195.31,0,0,1-62.61-26,.77.77,0,0,0-.87,0q-19.51,14.68-39.23,29.37c-3.52,2.63-8.11,1.44-11.24-1.68Q72.46,422.39,54.05,404c-4.49-4.5-3.25-8.77.36-13.59Q68.15,372,81.84,353.77a1,1,0,0,0,0-1.14A194.23,194.23,0,0,1,56,290.05a.64.64,0,0,0-.56-.52Q32.61,286.22,9.87,283C2.76,282,0,279.37,0,272.3V220.75c0-6.43,5.17-8.1,11-8.94l44.14-6.29a1.1,1.1,0,0,0,.91-.84A194.51,194.51,0,0,1,81.88,142.4a1,1,0,0,0,0-1.18L53.09,102.91c-3-4-2.42-8.37,1.12-11.93Q72,73,90,55.19c4.59-4.57,8.32-5.52,13.59-1.6q19,14.1,37.84,28.35a.72.72,0,0,0,.88,0,195,195,0,0,1,62.66-26A.66.66,0,0,0,205.48,55.37Zm204,192.31v-1C409,169.39,353.41,102,277.68,88.17,168.78,68.3,71.21,160,87,270.25c10.16,70.93,66,127.38,137.16,137.64C321.74,422,409.51,346.34,409.51,247.68Z"/><path class="cls-9" d="M409.55,246.73a.49.49,0,0,1-.45-.07c-21.39-30.47-47.57-58.39-78-80A187.23,187.23,0,0,0,292,145.33a153.14,153.14,0,0,0-19.75-6.06q-39.23-8.36-74.68,9a3.64,3.64,0,0,0-2.09.18c-43.72,20.37-80.14,56.9-107.79,95.7A26.37,26.37,0,0,0,86,247a.86.86,0,0,0,0,.85,48.94,48.94,0,0,0,3.16,5c28.33,39.45,65.67,75.45,110.41,95.62a1,1,0,0,0,.71,0q.34-.11,0-.18c-.52-.11-.66-.41-.41-.89,27.86,14.41,61.41,13.93,90.35,2.86,48.68-18.37,90.1-60.73,119.33-102.59,0,98.66-87.77,174.29-185.35,160.21C153,397.63,97.16,341.18,87,270.25,71.21,160,168.78,68.3,277.75,88.22,353.48,102.07,409.08,169.44,409.55,246.73Z"/><path class="cls-10" d="M292,145.33c0,1.33,2.87,1.94,3.76,2.38q32,15.67,48.83,46.23c31.56,57.25,6.68,130.71-54.36,155.73a.43.43,0,0,0-.25.38c0,.15.06.23.19.22-28.94,11.07-62.49,11.55-90.35-2.86-30.32-13.65-52.09-42-60-73.44-12.74-50.82,12.06-101.6,57.72-125.66q35.46-17.38,74.68-9A153.39,153.39,0,0,1,292,145.33ZM191.63,227q-6.07,16-3,31c5.44,26.33,25.74,45.84,52.48,48.84,35.53,4,66.54-24.66,66-60.5-.57-41.43-42.37-68.52-80.29-54.83-16.32-8-33.73-1.64-38.24,15.78Q186.12,217.08,191.63,227Z"/><path class="cls-11" d="M292,145.33a187.23,187.23,0,0,1,39.1,21.33c30.42,21.61,56.6,49.53,78,80,.07.09.22.12.45.07v1C380.32,289.59,338.9,332,290.22,350.32c-.13,0-.2-.07-.19-.22a.43.43,0,0,1,.25-.38c61-25,85.92-98.48,54.36-155.73q-16.84-30.56-48.83-46.23C294.88,147.27,292,146.66,292,145.33Z"/><path class="cls-11" d="M197.58,148.31c-45.66,24.06-70.46,74.84-57.72,125.66,7.88,31.43,29.65,59.79,60,73.44-.25.48-.11.78.41.89q.36.07,0,.18a1,1,0,0,1-.71,0c-44.76-20.18-82.1-56.18-110.43-95.63a48.94,48.94,0,0,1-3.16-5,.86.86,0,0,1,0-.85,27.21,27.21,0,0,1,1.72-2.77c27.65-38.8,64.07-75.33,107.79-95.7A3.68,3.68,0,0,1,197.58,148.31Z"/><path class="cls-9" d="M226.89,191.51q10.52,7.35,11.82,18.74c3.1,27.27-31.3,39-47.08,16.71q-5.5-9.89-3-19.67C193.16,189.87,210.57,183.5,226.89,191.51Z"/><path class="cls-12" d="M191.63,227c15.78,22.26,50.18,10.56,47.08-16.71q-1.31-11.39-11.82-18.74c37.92-13.69,79.72,13.4,80.29,54.83.5,35.84-30.51,64.48-66,60.5-26.74-3-47-22.51-52.48-48.84Q185.57,243,191.63,227Z"/><text class="cls-13" transform="translate(5.86 575.61)">MODE<tspan class="cls-14" x="225.49" y="0">L</tspan><tspan class="cls-10" x="262.48" y="0">SIGHT</tspan></text></svg>